<?xml version="1.0" encoding="UTF-8" standalone="no"?>
<!DOCTYPE svg PUBLIC "-//W3C//DTD SVG 1.1//EN" "http://www.w3.org/Graphics/SVG/1.1/DTD/svg11.dtd">
<svg width="100%" height="100%" viewBox="0 0 2800 2800" version="1.1" xmlns="http://www.w3.org/2000/svg" xmlns:xlink="http://www.w3.org/1999/xlink" xml:space="preserve" xmlns:serif="http://www.serif.com/" style="fill-rule:evenodd;clip-rule:evenodd;stroke-linejoin:round;stroke-miterlimit:2;">
    <g transform="matrix(1,0,0,1,304,150)">
        <path d="M1915.98,490.925C1914.26,478.425 1903.31,471.507 1894.26,470.745C1885.23,469.991 1694.07,455.822 1694.07,455.822C1694.07,455.822 1561.3,324.015 1546.73,309.426C1532.15,294.846 1503.67,299.281 1492.62,302.534C1490.99,303.014 1463.61,311.464 1418.32,325.479C1373.97,197.86 1295.7,80.582 1158,80.582C1154.2,80.582 1150.29,80.736 1146.38,80.959C1107.22,29.17 1058.7,6.67 1016.81,6.67C696.043,6.67 542.798,407.654 494.75,611.421C370.11,650.043 281.565,677.5 270.255,681.053C200.683,702.877 198.483,705.068 189.348,770.625C182.473,820.257 0.435,2228.04 0.435,2228.04L1418.91,2493.81L2187.49,2327.54C2187.49,2327.54 1917.69,503.425 1915.99,490.925L1915.98,490.925ZM1339.92,349.726L1219.9,386.875C1219.94,378.416 1219.98,370.094 1219.98,360.993C1219.98,281.678 1208.97,217.817 1191.31,167.192C1262.26,176.096 1309.51,256.824 1339.92,349.726ZM1103.3,182.92C1123.02,232.346 1135.85,303.279 1135.85,398.998C1135.85,403.896 1135.8,408.373 1135.76,412.902C1057.7,437.08 972.884,463.33 887.875,489.666C935.606,305.454 1025.08,216.481 1103.3,182.92ZM1008,92.705C1021.84,92.705 1035.79,97.406 1049.13,106.592C946.334,154.966 836.146,276.798 789.613,520.094L593.671,580.779C648.175,395.205 777.592,92.705 1007.99,92.705L1008,92.705Z" style="fill:rgb(149,191,70);fill-rule:nonzero;"/>
    </g>
    <g transform="matrix(1,0,0,1,304,150)">
        <path d="M1894.26,470.745C1885.23,469.991 1694.07,455.822 1694.07,455.822C1694.07,455.822 1561.3,324.015 1546.73,309.426C1541.27,303.998 1533.92,301.216 1526.23,300.017L1418.98,2493.79L2187.49,2327.54C2187.49,2327.54 1917.68,503.425 1915.98,490.925C1914.26,478.425 1903.31,471.507 1894.26,470.745" style="fill:rgb(94,142,62);fill-rule:nonzero;"/>
    </g>
    <g transform="matrix(1,0,0,1,304,150)">
        <path d="M1158,895.42L1063.24,1177.32C1063.24,1177.32 980.204,1133.01 878.423,1133.01C729.211,1133.01 721.702,1226.64 721.702,1250.24C721.702,1378.99 1057.32,1428.32 1057.32,1729.9C1057.32,1967.17 906.83,2119.95 703.92,2119.95C460.426,2119.95 335.906,1968.41 335.906,1968.41L401.103,1753C401.103,1753 529.099,1862.88 637.104,1862.88C707.678,1862.88 736.385,1807.32 736.385,1766.72C736.385,1598.78 461.043,1591.28 461.043,1315.32C461.043,1083.05 627.755,858.279 964.279,858.279C1093.94,858.279 1158,895.42 1158,895.42" style="fill:white;fill-rule:nonzero;"/>
    </g>
    <g transform="matrix(5.34383,0,0,5.34383,1792.81,1279.71)">
        <path d="M37.605,8.336C39.437,8.383 41.023,9.621 41.515,11.387L58.695,73.239L66.879,48.684C67.449,46.981 69.039,45.832 70.832,45.832L87.5,45.832C89.801,45.832 91.668,47.699 91.668,50C91.668,52.301 89.801,54.168 87.5,54.168L73.836,54.168L62.285,88.816C61.707,90.554 60.058,91.711 58.226,91.664C56.394,91.617 54.808,90.379 54.32,88.613L37.136,26.761L28.953,51.316C28.386,53.019 26.792,54.168 24.999,54.168L12.499,54.168C10.199,54.168 8.331,52.3 8.331,50C8.331,47.699 10.199,45.832 12.499,45.832L21.996,45.832L33.547,11.184C34.125,9.445 35.773,8.289 37.605,8.336L37.605,8.336Z" style="fill:white;"/>
    </g>
</svg>
